<svg version="1.1" id="Layer_1" xmlns="http://www.w3.org/2000/svg" xmlns:xlink="http://www.w3.org/1999/xlink" x="0px" y="0px"
	 width="100%" viewBox="0 0 5000 3685" enable-background="new 0 0 5000 3685" xml:space="preserve">
<path fill="#6655DF" opacity="1.000000" stroke="none" 
	d="
M3012.000000,3692.000000 
	C2008.115112,3692.000000 1006.230286,3692.000000 4.172722,3692.000000 
	C4.172722,2462.923096 4.172722,1233.846191 4.172722,4.384630 
	C1670.218628,4.384630 3336.437500,4.384630 5003.328125,4.384630 
	C5003.328125,1233.333008 5003.328125,2462.666504 5003.328125,3692.000000 
	C4340.512207,3692.000000 3677.256104,3692.000000 3012.000000,3692.000000 
M2521.167236,1640.069092 
	C2515.617920,1616.068115 2510.189941,1592.038452 2504.485107,1568.074463 
	C2498.817627,1544.267334 2494.543457,1520.083984 2486.801758,1495.938965 
	C2444.597900,1495.043579 2403.453613,1495.055054 2361.187012,1495.936401 
	C2275.464111,1675.337524 2189.934570,1854.323853 2104.452637,2033.332764 
	C2103.115967,2036.132080 2102.364014,2039.210693 2101.225098,2042.487549 
	C2104.038330,2043.503174 2105.858887,2044.728027 2107.684082,2044.734741 
	C2137.654053,2044.845581 2167.624756,2044.849731 2197.594971,2044.765503 
	C2206.491943,2044.740479 2214.549561,2041.850952 2221.989990,2036.988770 
	C2230.679199,2031.310303 2236.403564,2023.468506 2240.293213,2013.917358 
	C2250.840820,1988.016724 2261.578369,1962.193115 2272.367432,1936.391846 
	C2274.633301,1930.972900 2277.441406,1925.780640 2279.680908,1921.143188 
	C2283.092285,1920.584106 2285.047607,1919.985962 2287.003906,1919.983154 
	C2342.959473,1919.901978 2398.915039,1919.831299 2454.870361,1919.960327 
	C2458.586670,1919.968872 2462.299561,1921.571533 2466.350342,1922.510742 
	C2468.364746,1933.750122 2470.256836,1944.200806 2472.108154,1954.658691 
	C2475.821777,1975.638428 2479.064697,1996.714233 2483.354736,2017.575195 
	C2486.808105,2034.367065 2496.617188,2042.514893 2513.572998,2044.544067 
	C2516.871094,2044.938843 2520.218994,2045.056152 2523.544189,2045.062744 
	C2549.523926,2045.114014 2575.504150,2045.174683 2601.483154,2045.042603 
	C2605.220459,2045.023682 2608.952393,2043.991211 2612.240967,2043.495239 
	C2612.718506,2040.877686 2613.381348,2039.517822 2613.117432,2038.371460 
	C2582.810547,1906.668213 2552.435303,1774.980713 2521.167236,1640.069092 
M3381.099609,1674.402344 
	C3379.062500,1692.277710 3377.144043,1710.167480 3374.968262,1728.026001 
	C3362.639648,1829.215820 3350.234131,1930.396362 3337.938721,2031.590088 
	C3337.477783,2035.382690 3337.880127,2039.280151 3337.880127,2044.715210 
	C3357.410889,2045.502441 3376.007080,2045.363647 3394.565674,2045.042969 
	C3413.696533,2044.712280 3432.967041,2046.909180 3452.431396,2043.366455 
	C3453.478760,2038.842285 3454.723633,2035.066895 3455.193115,2031.197266 
	C3462.339111,1972.332031 3469.347412,1913.449951 3476.464111,1854.581177 
	C3481.149902,1815.821777 3499.308105,1783.975708 3527.414795,1757.609253 
	C3533.138672,1752.239746 3540.232178,1747.928711 3547.380371,1744.604736 
	C3553.246582,1741.876465 3560.081299,1740.352661 3566.574463,1740.022583 
	C3583.303467,1739.171997 3593.052490,1747.239258 3595.111816,1764.047241 
	C3596.235596,1773.219482 3596.081787,1782.742798 3595.064453,1791.948608 
	C3590.966797,1829.032349 3586.243408,1866.046265 3581.874023,1903.100586 
	C3576.802002,1946.110840 3571.817139,1989.131470 3566.933838,2032.163574 
	C3566.515625,2035.849243 3567.142090,2039.653564 3567.330322,2044.661255 
	C3581.010986,2044.831177 3593.583496,2045.048828 3606.156738,2045.126465 
	C3618.820312,2045.204590 3631.495361,2045.470581 3644.145508,2045.050537 
	C3656.559082,2044.638428 3669.255127,2047.188965 3681.821289,2042.626343 
	C3682.521973,2038.960449 3683.337158,2035.757568 3683.726074,2032.503662 
	C3692.898438,1955.762939 3702.337646,1879.051636 3710.925537,1802.245361 
	C3712.914551,1784.456665 3712.646240,1766.322876 3712.184326,1748.379517 
	C3711.732910,1730.850952 3706.314697,1714.313110 3698.304688,1698.709839 
	C3684.256348,1671.344360 3661.837646,1654.954224 3631.803467,1649.365723 
	C3617.321289,1646.671143 3602.617920,1647.140015 3588.062500,1649.904785 
	C3559.181885,1655.390015 3533.989990,1668.243286 3512.030518,1687.679321 
	C3507.727295,1691.487915 3503.109375,1694.940308 3496.843994,1700.006836 
	C3496.018555,1679.484741 3500.263428,1662.043701 3501.995850,1644.419189 
	C3503.755127,1626.521484 3506.178711,1608.687744 3508.394531,1590.836426 
	C3510.692383,1572.323364 3513.707764,1553.874512 3515.265137,1535.301636 
	C3516.748047,1517.611816 3522.056396,1500.136719 3519.670654,1480.920532 
	C3506.494873,1479.253052 3493.928955,1480.266113 3481.443359,1480.087158 
	C3468.781738,1479.905640 3456.108398,1479.772095 3443.454102,1480.124756 
	C3430.980469,1480.472412 3418.293457,1478.313110 3404.948242,1482.425537 
	C3403.298584,1495.102783 3401.597900,1507.576294 3400.063477,1520.070068 
	C3393.891113,1570.328125 3387.770752,1620.592407 3381.099609,1674.402344 
M3808.774658,1886.725220 
	C3793.671631,1893.128174 3777.364014,1896.911133 3763.967285,1906.121094 
	C3765.974121,1926.111694 3773.114014,1948.573853 3783.641357,1969.680542 
	C3803.292480,2009.078369 3834.515869,2033.855469 3877.230225,2044.358643 
	C3902.026123,2050.455566 3927.223877,2052.457520 3952.606934,2051.181885 
	C3997.347900,2048.933838 4039.238770,2037.178101 4076.799805,2011.983887 
	C4110.090820,1989.653809 4133.090820,1959.434814 4145.382812,1921.295288 
	C4153.441406,1896.291870 4156.536133,1870.715820 4153.365723,1844.417480 
	C4149.068359,1808.772461 4130.949219,1782.456665 4100.696289,1763.854492 
	C4095.288086,1760.528809 4088.728271,1758.622925 4083.694336,1751.672729 
	C4093.010742,1747.505737 4101.403320,1743.939453 4109.636719,1740.035889 
	C4141.081055,1725.127930 4161.280273,1700.984863 4169.465820,1666.968140 
	C4174.020508,1648.041504 4176.096191,1628.831543 4174.621582,1609.472290 
	C4172.197266,1577.638184 4159.698730,1550.343140 4135.941895,1528.560791 
	C4118.345703,1512.427124 4097.560059,1502.255127 4074.664795,1496.319092 
	C4049.229004,1489.724243 4023.380859,1489.237671 3997.280762,1491.308105 
	C3902.791016,1498.803345 3839.500488,1559.021118 3813.881104,1635.337158 
	C3812.259277,1640.168457 3811.610107,1645.326294 3810.193359,1651.763306 
	C3822.548584,1654.220093 3833.485352,1656.643311 3844.515137,1658.520630 
	C3856.315674,1660.529175 3868.155029,1662.831177 3880.065430,1663.553223 
	C3898.217773,1664.653809 3912.351562,1656.981934 3921.551270,1641.000977 
	C3925.205322,1634.653564 3928.348633,1627.995117 3932.249756,1621.809814 
	C3952.554199,1589.616821 3987.114258,1575.460938 4023.696045,1584.165649 
	C4042.224365,1588.574585 4055.299561,1599.953979 4059.151611,1618.309692 
	C4069.131348,1665.864014 4056.042969,1705.760986 4001.486572,1719.411621 
	C3999.550293,1719.896240 3997.583740,1720.319336 3995.605469,1720.565796 
	C3983.071045,1722.128052 3970.521484,1723.568970 3957.994629,1725.189697 
	C3953.576904,1725.761230 3949.210205,1726.725952 3944.272949,1727.609009 
	C3940.152832,1751.507080 3936.256104,1774.401245 3935.113525,1797.673218 
	C3935.032959,1799.311768 3936.833008,1801.042847 3938.489746,1804.063965 
	C3946.002441,1804.063965 3953.984375,1803.775146 3961.937988,1804.124756 
	C3978.010498,1804.831055 3993.678467,1807.960938 4008.768066,1813.531738 
	C4028.842041,1820.942749 4040.585205,1834.943359 4041.265381,1856.862183 
	C4041.512451,1864.818237 4041.402588,1872.885254 4040.388428,1880.764282 
	C4034.190430,1928.904175 3996.448975,1961.013062 3948.060303,1959.585938 
	C3922.246582,1958.824707 3901.674805,1948.401001 3888.158203,1925.936768 
	C3883.369385,1917.977905 3879.020996,1909.635254 3875.538086,1901.035767 
	C3869.489014,1886.098022 3858.468750,1879.797363 3842.896484,1879.482788 
	C3832.029297,1879.263184 3821.688721,1881.064941 3808.774658,1886.725220 
M2904.060547,1741.059814 
	C2900.091064,1773.466553 2895.275146,1805.798340 2892.392578,1838.301514 
	C2889.574707,1870.076904 2876.885742,1897.275269 2858.176514,1922.233032 
	C2850.121094,1932.979004 2840.660645,1942.566284 2828.778809,1948.938232 
	C2821.267334,1952.966431 2813.033203,1956.468628 2804.716309,1958.002808 
	C2787.712646,1961.139160 2775.733887,1952.514160 2773.211670,1935.458008 
	C2771.862793,1926.337646 2771.958252,1916.772095 2772.959717,1907.576904 
	C2776.927246,1871.147827 2781.552246,1834.790771 2785.852295,1798.397461 
	C2791.012695,1754.725342 2796.123047,1711.047119 2801.147217,1667.359253 
	C2801.579102,1663.605347 2801.204590,1659.758789 2801.204590,1654.670166 
	C2787.659912,1652.463257 2775.071777,1653.581787 2762.590088,1653.411011 
	C2749.927979,1653.237671 2737.252930,1653.083618 2724.599365,1653.454834 
	C2712.158936,1653.819702 2699.458984,1651.460815 2686.066162,1656.067871 
	C2684.148926,1670.659790 2682.116699,1685.065674 2680.384033,1699.507446 
	C2674.034912,1752.431152 2667.504395,1805.335693 2661.618408,1858.311401 
	C2658.752197,1884.109253 2656.588623,1910.017700 2655.185791,1935.934570 
	C2654.205811,1954.041382 2657.781738,1971.770020 2664.305908,1988.784302 
	C2679.537109,2028.505737 2712.547119,2051.355957 2755.249512,2051.286377 
	C2785.471924,2051.237061 2813.131104,2042.193726 2837.641113,2024.749268 
	C2848.972900,2016.684204 2858.892822,2006.640869 2869.500488,1997.550049 
	C2872.796875,1994.724976 2876.249512,1992.082642 2880.396973,1988.739258 
	C2884.695312,1997.006226 2882.807617,2004.496216 2883.516357,2011.575317 
	C2885.414062,2030.534668 2894.612061,2041.982788 2912.875000,2043.957520 
	C2935.959961,2046.453979 2959.207520,2045.508545 2983.046387,2044.502197 
	C2984.046387,2040.288940 2985.110107,2037.179321 2985.495117,2033.987793 
	C3000.574219,1908.994995 3015.592773,1783.995117 3030.579590,1658.991211 
	C3030.650146,1658.402710 3030.226562,1657.703247 3029.898193,1657.133911 
	C3029.586182,1656.592285 3029.096436,1656.153198 3028.684814,1655.669067 
	C3013.532715,1652.718018 2936.105469,1652.396484 2917.507324,1655.206421 
	C2916.706543,1656.251831 2915.345459,1657.219116 2915.187012,1658.354004 
	C2911.512451,1684.720215 2907.968262,1711.104614 2904.060547,1741.059814 
M1575.411377,1614.194458 
	C1565.933350,1609.691650 1556.455444,1605.188721 1546.151855,1600.293579 
	C1546.010010,1592.162354 1545.871460,1584.224121 1545.732910,1576.285767 
	C1545.372681,1555.643677 1545.983887,1534.930664 1544.483398,1514.371826 
	C1538.150391,1427.604492 1454.971558,1348.949463 1349.776245,1370.724976 
	C1273.614258,1386.490479 1221.435547,1452.068115 1220.805908,1529.925049 
	C1220.660400,1547.911621 1220.855225,1565.900757 1220.728638,1583.887451 
	C1220.687134,1589.791870 1220.124634,1595.692627 1219.790527,1601.770142 
	C1212.889038,1604.379028 1206.509399,1606.217773 1200.648071,1609.107788 
	C1177.911255,1620.318726 1164.972778,1638.393555 1163.467041,1664.046143 
	C1163.194214,1668.695923 1163.296631,1673.370361 1163.295898,1678.033325 
	C1163.286499,1737.325806 1163.283691,1796.618164 1163.300903,1855.910645 
	C1163.302490,1861.239136 1163.216431,1866.583862 1163.576172,1871.893555 
	C1165.353638,1898.132690 1182.440918,1920.486572 1207.631348,1927.934082 
	C1216.404541,1930.528076 1225.958862,1931.452515 1235.160645,1931.474976 
	C1333.758667,1931.716064 1432.357666,1931.625977 1530.956299,1931.612305 
	C1534.952148,1931.611694 1538.970581,1931.716064 1542.940063,1931.351807 
	C1573.065918,1928.586426 1596.392456,1907.270508 1601.463501,1877.337646 
	C1602.787842,1869.521118 1602.892700,1861.434204 1602.910156,1853.470093 
	C1603.041138,1793.511841 1602.435547,1733.544678 1603.314087,1673.598755 
	C1603.663574,1649.751831 1596.460815,1630.644287 1575.411377,1614.194458 
M3321.609131,1732.338745 
	C3323.801270,1719.980591 3326.679443,1707.694824 3327.996338,1695.244141 
	C3329.359131,1682.356934 3333.833252,1669.471436 3330.679199,1655.280518 
	C3323.013428,1654.980591 3316.423340,1654.550537 3309.829834,1654.498779 
	C3293.841797,1654.373291 3277.849609,1654.585449 3261.865723,1654.299316 
	C3257.440430,1654.220093 3253.038330,1652.870972 3247.402832,1651.892212 
	C3248.252930,1614.562988 3257.224609,1578.919922 3258.664795,1541.640015 
	C3253.781006,1540.983521 3249.965576,1540.077637 3246.139160,1540.026855 
	C3232.151367,1539.840942 3218.158691,1539.832275 3204.169678,1539.955933 
	C3180.600342,1540.164185 3176.035889,1543.531982 3168.027832,1566.177979 
	C3166.473877,1570.572021 3165.044922,1575.010132 3163.525635,1579.416626 
	C3156.364014,1600.190796 3148.808594,1620.840454 3142.202881,1641.789795 
	C3139.405273,1650.661499 3134.384033,1654.728271 3125.430664,1656.251221 
	C3110.413818,1658.805542 3095.565186,1662.348267 3080.650635,1665.474121 
	C3079.361328,1669.574707 3077.920166,1672.633545 3077.489746,1675.828613 
	C3076.422852,1683.745605 3075.921875,1691.736694 3075.009766,1699.677002 
	C3071.442871,1730.725220 3073.922119,1733.474731 3106.046631,1734.732422 
	C3110.479492,1734.906006 3114.869873,1736.160522 3119.302246,1736.918335 
	C3119.302246,1742.670654 3119.789062,1747.338135 3119.227051,1751.875732 
	C3113.496582,1798.137329 3107.353271,1844.348877 3101.840576,1890.635742 
	C3098.930176,1915.072876 3094.489990,1939.416626 3095.706299,1964.219482 
	C3097.825195,2007.439209 3125.169922,2039.999146 3167.706787,2048.269043 
	C3213.937012,2057.256836 3256.176758,2046.282471 3294.898926,2020.326050 
	C3296.363770,2019.344360 3297.064941,2017.223267 3298.737549,2014.706787 
	C3290.419922,1996.874268 3282.308350,1978.672241 3273.455566,1960.838135 
	C3268.871582,1951.603882 3263.801025,1950.336304 3253.554688,1954.030518 
	C3249.176758,1955.609009 3245.035400,1958.012207 3240.558594,1959.116211 
	C3225.235107,1962.894775 3213.918945,1955.058105 3212.312500,1939.464600 
	C3211.772461,1934.221191 3212.160645,1928.795044 3212.788818,1923.531738 
	C3219.495117,1867.323364 3226.258545,1811.121582 3233.244873,1754.947510 
	C3234.039062,1748.561157 3233.698730,1741.546021 3239.765869,1735.223999 
	C3246.133057,1735.037964 3253.374512,1734.743530 3260.618896,1734.630737 
	C3279.922852,1734.329834 3299.227783,1734.106934 3321.609131,1732.338745 
M1891.962280,2150.303467 
	C1895.015015,2147.728516 1898.265015,2145.352295 1901.090698,2142.548584 
	C1937.845215,2106.081787 1930.960083,2047.820557 1886.725220,2020.870972 
	C1882.250854,2018.145142 1877.577759,2015.745239 1872.620605,2012.984375 
	C1872.323730,2006.543701 1871.875122,2000.624023 1871.812866,1994.700317 
	C1871.665894,1980.711548 1872.097168,1966.706787 1871.593994,1952.733643 
	C1869.849243,1904.294800 1835.833618,1869.770630 1787.700684,1868.732422 
	C1749.079346,1867.899170 1710.425537,1868.488770 1671.786865,1868.650635 
	C1667.212280,1868.669678 1662.412109,1869.313599 1658.116577,1870.813477 
	C1647.258911,1874.605103 1641.307617,1884.678589 1642.561768,1895.868774 
	C1643.749390,1906.465698 1650.614990,1914.401855 1661.383057,1916.383911 
	C1667.221802,1917.458740 1673.307007,1917.461060 1679.282593,1917.481323 
	C1709.261108,1917.582642 1739.240112,1917.522949 1769.218872,1917.538452 
	C1774.547729,1917.541138 1779.881470,1917.503052 1785.204590,1917.704346 
	C1809.604126,1918.627075 1821.590942,1934.810791 1821.300049,1954.487183 
	C1821.073608,1969.805664 1821.429810,1985.132446 1821.237549,2000.451904 
	C1821.180542,2004.997681 1820.142944,2009.531250 1819.637085,2013.434326 
	C1813.072876,2017.427979 1807.150024,2020.541870 1801.755859,2024.395630 
	C1774.292725,2044.017212 1762.899414,2079.247803 1773.405151,2111.346436 
	C1783.708252,2142.826416 1812.574707,2163.570557 1845.944946,2164.162598 
	C1861.838501,2164.444092 1876.167847,2160.233643 1891.962280,2150.303467 
M1710.110107,1634.781494 
	C1698.791382,1634.785767 1687.472534,1634.756958 1676.154053,1634.811890 
	C1672.162964,1634.831299 1668.136475,1634.758057 1664.189087,1635.241089 
	C1651.560303,1636.786499 1643.198364,1645.408569 1642.434570,1657.338623 
	C1641.672119,1669.246338 1648.886597,1679.177246 1660.979004,1682.399170 
	C1664.147949,1683.243774 1667.550293,1683.529297 1670.845947,1683.533325 
	C1710.128174,1683.582520 1749.428101,1684.241821 1788.687012,1683.272339 
	C1818.610718,1682.533203 1842.243652,1668.829956 1858.330566,1643.175293 
	C1867.067749,1629.241699 1870.387817,1613.693970 1870.673218,1597.470581 
	C1870.930908,1582.826904 1870.637573,1568.173950 1870.869019,1553.529419 
	C1870.951050,1548.337158 1871.863037,1543.158081 1872.292969,1538.976685 
	C1879.268555,1534.704712 1885.175781,1531.560547 1890.574585,1527.704590 
	C1928.452271,1500.651978 1935.182251,1447.515015 1904.580566,1413.622437 
	C1883.507446,1390.283081 1856.830200,1382.320557 1826.639038,1390.750610 
	C1794.821777,1399.634521 1775.380493,1421.420288 1770.522339,1454.111572 
	C1765.910522,1485.146118 1777.802002,1510.169312 1803.210571,1528.526733 
	C1809.068848,1532.759277 1815.538208,1536.146118 1822.542603,1540.420166 
	C1823.308960,1561.129761 1823.875732,1581.757324 1822.409302,1602.268555 
	C1821.118164,1620.330444 1809.780640,1631.291504 1791.928711,1633.986694 
	C1786.697388,1634.776489 1781.311401,1634.714111 1775.994995,1634.735474 
	C1755.355347,1634.818359 1734.714966,1634.777710 1710.110107,1634.781494 
M1014.041870,1683.630615 
	C1040.015747,1683.623779 1065.993896,1683.874023 1091.960205,1683.428711 
	C1098.412720,1683.318237 1105.317993,1682.036743 1111.146118,1679.384399 
	C1120.440063,1675.154541 1124.993408,1664.241455 1123.341797,1654.188354 
	C1121.679321,1644.068604 1113.896484,1636.582397 1102.996094,1635.282959 
	C1097.731689,1634.655396 1092.360352,1634.815308 1087.037231,1634.808472 
	C1055.735474,1634.768921 1024.433594,1634.804321 993.131836,1634.764771 
	C987.808289,1634.758057 982.439087,1634.911377 977.169739,1634.305542 
	C956.266418,1631.901855 945.012085,1619.859009 944.236328,1598.679565 
	C943.773438,1586.041870 944.033997,1573.374268 944.125305,1560.721313 
	C944.177246,1553.515137 944.543030,1546.311157 944.751221,1539.629395 
	C951.713623,1535.420288 957.561523,1532.254639 963.021729,1528.521851 
	C991.589111,1508.991943 1003.703125,1474.748901 993.612976,1442.545898 
	C983.142883,1409.130249 953.293762,1387.403564 918.425720,1387.818481 
	C884.103027,1388.226929 852.439514,1411.850464 844.807251,1444.661133 
	C836.479492,1480.461182 848.515625,1511.496582 879.449158,1531.052368 
	C884.428223,1534.200195 889.580017,1537.074707 895.529236,1540.594727 
	C895.529236,1560.122192 896.189941,1579.404297 895.389587,1598.625732 
	C893.800537,1636.786377 923.201904,1682.754517 980.097107,1683.555786 
	C990.085266,1683.696411 1000.076599,1683.611450 1014.041870,1683.630615 
M952.199219,1930.518188 
	C961.111389,1919.646362 973.347412,1917.555908 986.387146,1917.553345 
	C1019.013733,1917.546875 1051.640503,1917.557373 1084.266846,1917.482178 
	C1090.250977,1917.468384 1096.305664,1917.592773 1102.202881,1916.764038 
	C1114.484985,1915.038086 1123.110718,1905.509033 1123.523926,1894.026978 
	C1123.927368,1882.816895 1115.699951,1872.096680 1103.926147,1869.557373 
	C1098.798218,1868.451538 1093.349976,1868.606079 1088.045532,1868.583862 
	C1065.406982,1868.488892 1042.767822,1868.535278 1020.128967,1868.543213 
	C1006.146240,1868.548096 992.146973,1868.142700 978.183716,1868.673584 
	C930.046204,1870.504028 896.105164,1905.414429 895.506897,1953.434204 
	C895.341003,1966.749146 895.557861,1980.068481 895.439087,1993.384399 
	C895.380676,1999.931396 894.957092,2006.475098 894.718506,2012.521729 
	C887.296204,2017.012939 880.766113,2020.381592 874.867859,2024.627930 
	C836.719482,2052.091553 835.924866,2097.564941 852.460754,2125.899658 
	C874.547546,2163.745850 919.074280,2172.491455 951.341248,2157.498047 
	C978.228271,2145.004150 994.027832,2123.828125 996.596069,2094.118896 
	C999.231812,2063.630127 987.032898,2039.679810 961.733459,2022.530762 
	C956.328369,2018.867065 950.487610,2015.846313 944.302917,2012.208984 
	C944.302917,1991.058594 943.890564,1970.464233 944.571960,1949.906128 
	C944.759216,1944.256958 948.216492,1938.715942 952.199219,1930.518188 
M846.410400,1798.075439 
	C847.258606,1800.597778 847.896179,1803.215210 848.987122,1805.627808 
	C861.856567,1834.089600 883.397461,1851.085327 914.937927,1853.080078 
	C947.129639,1855.115967 971.554810,1841.467041 987.944946,1813.627930 
	C990.274048,1809.671875 992.453796,1805.627686 995.066772,1800.976318 
	C1001.845520,1800.742676 1008.426453,1800.340942 1015.008545,1800.320312 
	C1040.297729,1800.241089 1065.587280,1800.312500 1090.876587,1800.256104 
	C1095.525269,1800.245728 1100.262573,1800.411499 1104.804077,1799.613892 
	C1116.643677,1797.534546 1124.642944,1787.379028 1124.352539,1775.498535 
	C1124.061890,1763.613403 1115.693359,1753.873169 1103.750977,1752.241455 
	C1098.511353,1751.525635 1093.125366,1751.779053 1087.805664,1751.770386 
	C1061.850830,1751.728149 1035.895630,1751.810547 1009.941284,1751.688232 
	C1004.724854,1751.663574 999.511658,1750.941406 994.829163,1750.581665 
	C990.445068,1743.402222 987.121399,1736.801758 982.746033,1730.993530 
	C963.361084,1705.261719 937.452576,1694.034302 905.752075,1700.184937 
	C874.116821,1706.322876 854.155579,1726.487793 845.380432,1757.270630 
	C841.869202,1769.588013 842.793701,1782.336304 846.410400,1798.075439 
M1710.039307,1800.288208 
	C1720.704468,1800.288208 1731.375366,1800.072876 1742.033325,1800.349243 
	C1752.584106,1800.622803 1763.293457,1798.861450 1773.153931,1801.877563 
	C1778.201050,1809.770752 1782.304810,1817.489624 1787.613037,1824.264771 
	C1810.456177,1853.420532 1850.271362,1861.838623 1883.026611,1844.841675 
	C1915.758423,1827.856934 1932.209839,1790.291870 1921.538208,1755.029663 
	C1912.217773,1724.233032 1891.504272,1704.806763 1859.528442,1699.816895 
	C1825.817749,1694.556274 1799.663208,1707.772827 1781.195801,1736.301880 
	C1778.016724,1741.212891 1775.156250,1746.330200 1771.910156,1751.750366 
	C1764.524780,1751.750366 1757.894165,1751.750122 1751.263550,1751.750488 
	C1727.266724,1751.751831 1703.269897,1751.719727 1679.273315,1751.781128 
	C1673.949585,1751.794800 1668.538818,1751.596558 1663.321167,1752.441040 
	C1651.455933,1754.361206 1643.432739,1764.478027 1643.619385,1776.449463 
	C1643.819580,1789.287598 1652.503662,1799.031982 1666.104004,1799.892212 
	C1679.385498,1800.732178 1692.753052,1800.211548 1710.039307,1800.288208 
z"/>
<path fill="#EFEFF1" opacity="1.000000" stroke="none" 
	d="
M2521.615234,1641.680786 
	C2552.435303,1774.980713 2582.810547,1906.668213 2613.117432,2038.371460 
	C2613.381348,2039.517822 2612.718506,2040.877686 2612.240967,2043.495239 
	C2608.952393,2043.991211 2605.220459,2045.023682 2601.483154,2045.042603 
	C2575.504150,2045.174683 2549.523926,2045.114014 2523.544189,2045.062744 
	C2520.218994,2045.056152 2516.871094,2044.938843 2513.572998,2044.544067 
	C2496.617188,2042.514893 2486.808105,2034.367065 2483.354736,2017.575195 
	C2479.064697,1996.714233 2475.821777,1975.638428 2472.108154,1954.658691 
	C2470.256836,1944.200806 2468.364746,1933.750122 2466.350342,1922.510742 
	C2462.299561,1921.571533 2458.586670,1919.968872 2454.870361,1919.960327 
	C2398.915039,1919.831299 2342.959473,1919.901978 2287.003906,1919.983154 
	C2285.047607,1919.985962 2283.092285,1920.584106 2279.680908,1921.143188 
	C2277.441406,1925.780640 2274.633301,1930.972900 2272.367432,1936.391846 
	C2261.578369,1962.193115 2250.840820,1988.016724 2240.293213,2013.917358 
	C2236.403564,2023.468506 2230.679199,2031.310303 2221.989990,2036.988770 
	C2214.549561,2041.850952 2206.491943,2044.740479 2197.594971,2044.765503 
	C2167.624756,2044.849731 2137.654053,2044.845581 2107.684082,2044.734741 
	C2105.858887,2044.728027 2104.038330,2043.503174 2101.225098,2042.487549 
	C2102.364014,2039.210693 2103.115967,2036.132080 2104.452637,2033.332764 
	C2189.934570,1854.323853 2275.464111,1675.337524 2361.187012,1495.936401 
	C2403.453613,1495.055054 2444.597900,1495.043579 2486.801758,1495.938965 
	C2494.543457,1520.083984 2498.817627,1544.267334 2504.485107,1568.074463 
	C2510.189941,1592.038452 2515.617920,1616.068115 2521.615234,1641.680786 
M2393.877441,1643.711914 
	C2386.951660,1659.578613 2379.899658,1675.391724 2373.136230,1691.327393 
	C2366.632812,1706.651001 2360.435791,1722.104736 2354.088867,1737.495117 
	C2347.488525,1753.500244 2340.501221,1769.358276 2334.363525,1785.538696 
	C2328.322021,1801.466431 2319.108154,1816.335327 2316.614014,1833.875000 
	C2319.437012,1834.618530 2321.292480,1835.529541 2323.150146,1835.534180 
	C2363.115967,1835.633911 2403.082031,1835.674194 2443.047607,1835.544067 
	C2445.391357,1835.536377 2447.729980,1833.994873 2451.118896,1832.796509 
	C2448.728027,1818.380493 2446.544434,1804.654907 2444.164551,1790.963379 
	C2434.473877,1735.204712 2424.765869,1679.448853 2414.918701,1623.717773 
	C2414.085449,1619.002197 2412.174072,1614.477051 2409.789795,1606.678589 
	C2403.963135,1620.308228 2399.546143,1630.639893 2393.877441,1643.711914 
z"/>
<path fill="#EFEFF1" opacity="1.000000" stroke="none" 
	d="
M3381.365234,1672.628418 
	C3387.770752,1620.592407 3393.891113,1570.328125 3400.063477,1520.070068 
	C3401.597900,1507.576294 3403.298584,1495.102783 3404.948242,1482.425537 
	C3418.293457,1478.313110 3430.980469,1480.472412 3443.454102,1480.124756 
	C3456.108398,1479.772095 3468.781738,1479.905640 3481.443359,1480.087158 
	C3493.928955,1480.266113 3506.494873,1479.253052 3519.670654,1480.920532 
	C3522.056396,1500.136719 3516.748047,1517.611816 3515.265137,1535.301636 
	C3513.707764,1553.874512 3510.692383,1572.323364 3508.394531,1590.836426 
	C3506.178711,1608.687744 3503.755127,1626.521484 3501.995850,1644.419189 
	C3500.263428,1662.043701 3496.018555,1679.484741 3496.843994,1700.006836 
	C3503.109375,1694.940308 3507.727295,1691.487915 3512.030518,1687.679321 
	C3533.989990,1668.243286 3559.181885,1655.390015 3588.062500,1649.904785 
	C3602.617920,1647.140015 3617.321289,1646.671143 3631.803467,1649.365723 
	C3661.837646,1654.954224 3684.256348,1671.344360 3698.304688,1698.709839 
	C3706.314697,1714.313110 3711.732910,1730.850952 3712.184326,1748.379517 
	C3712.646240,1766.322876 3712.914551,1784.456665 3710.925537,1802.245361 
	C3702.337646,1879.051636 3692.898438,1955.762939 3683.726074,2032.503662 
	C3683.337158,2035.757568 3682.521973,2038.960449 3681.821289,2042.626343 
	C3669.255127,2047.188965 3656.559082,2044.638428 3644.145508,2045.050537 
	C3631.495361,2045.470581 3618.820312,2045.204590 3606.156738,2045.126465 
	C3593.583496,2045.048828 3581.010986,2044.831177 3567.330322,2044.661255 
	C3567.142090,2039.653564 3566.515625,2035.849243 3566.933838,2032.163574 
	C3571.817139,1989.131470 3576.802002,1946.110840 3581.874023,1903.100586 
	C3586.243408,1866.046265 3590.966797,1829.032349 3595.064453,1791.948608 
	C3596.081787,1782.742798 3596.235596,1773.219482 3595.111816,1764.047241 
	C3593.052490,1747.239258 3583.303467,1739.171997 3566.574463,1740.022583 
	C3560.081299,1740.352661 3553.246582,1741.876465 3547.380371,1744.604736 
	C3540.232178,1747.928711 3533.138672,1752.239746 3527.414795,1757.609253 
	C3499.308105,1783.975708 3481.149902,1815.821777 3476.464111,1854.581177 
	C3469.347412,1913.449951 3462.339111,1972.332031 3455.193115,2031.197266 
	C3454.723633,2035.066895 3453.478760,2038.842285 3452.431396,2043.366455 
	C3432.967041,2046.909180 3413.696533,2044.712280 3394.565674,2045.042969 
	C3376.007080,2045.363647 3357.410889,2045.502441 3337.880127,2044.715210 
	C3337.880127,2039.280151 3337.477783,2035.382690 3337.938721,2031.590088 
	C3350.234131,1930.396362 3362.639648,1829.215820 3374.968262,1728.026001 
	C3377.144043,1710.167480 3379.062500,1692.277710 3381.365234,1672.628418 
z"/>
<path fill="#EFEFF1" opacity="1.000000" stroke="none" 
	d="
M3810.266113,1886.063110 
	C3821.688721,1881.064941 3832.029297,1879.263184 3842.896484,1879.482788 
	C3858.468750,1879.797363 3869.489014,1886.098022 3875.538086,1901.035767 
	C3879.020996,1909.635254 3883.369385,1917.977905 3888.158203,1925.936768 
	C3901.674805,1948.401001 3922.246582,1958.824707 3948.060303,1959.585938 
	C3996.448975,1961.013062 4034.190430,1928.904175 4040.388428,1880.764282 
	C4041.402588,1872.885254 4041.512451,1864.818237 4041.265381,1856.862183 
	C4040.585205,1834.943359 4028.842041,1820.942749 4008.768066,1813.531738 
	C3993.678467,1807.960938 3978.010498,1804.831055 3961.937988,1804.124756 
	C3953.984375,1803.775146 3946.002441,1804.063965 3938.489746,1804.063965 
	C3936.833008,1801.042847 3935.032959,1799.311768 3935.113525,1797.673218 
	C3936.256104,1774.401245 3940.152832,1751.507080 3944.272949,1727.609009 
	C3949.210205,1726.725952 3953.576904,1725.761230 3957.994629,1725.189697 
	C3970.521484,1723.568970 3983.071045,1722.128052 3995.605469,1720.565796 
	C3997.583740,1720.319336 3999.550293,1719.896240 4001.486572,1719.411621 
	C4056.042969,1705.760986 4069.131348,1665.864014 4059.151611,1618.309692 
	C4055.299561,1599.953979 4042.224365,1588.574585 4023.696045,1584.165649 
	C3987.114258,1575.460938 3952.554199,1589.616821 3932.249756,1621.809814 
	C3928.348633,1627.995117 3925.205322,1634.653564 3921.551270,1641.000977 
	C3912.351562,1656.981934 3898.217773,1664.653809 3880.065430,1663.553223 
	C3868.155029,1662.831177 3856.315674,1660.529175 3844.515137,1658.520630 
	C3833.485352,1656.643311 3822.548584,1654.220093 3810.193359,1651.763306 
	C3811.610107,1645.326294 3812.259277,1640.168457 3813.881104,1635.337158 
	C3839.500488,1559.021118 3902.791016,1498.803345 3997.280762,1491.308105 
	C4023.380859,1489.237671 4049.229004,1489.724243 4074.664795,1496.319092 
	C4097.560059,1502.255127 4118.345703,1512.427124 4135.941895,1528.560791 
	C4159.698730,1550.343140 4172.197266,1577.638184 4174.621582,1609.472290 
	C4176.096191,1628.831543 4174.020508,1648.041504 4169.465820,1666.968140 
	C4161.280273,1700.984863 4141.081055,1725.127930 4109.636719,1740.035889 
	C4101.403320,1743.939453 4093.010742,1747.505737 4083.694336,1751.672729 
	C4088.728271,1758.622925 4095.288086,1760.528809 4100.696289,1763.854492 
	C4130.949219,1782.456665 4149.068359,1808.772461 4153.365723,1844.417480 
	C4156.536133,1870.715820 4153.441406,1896.291870 4145.382812,1921.295288 
	C4133.090820,1959.434814 4110.090820,1989.653809 4076.799805,2011.983887 
	C4039.238770,2037.178101 3997.347900,2048.933838 3952.606934,2051.181885 
	C3927.223877,2052.457520 3902.026123,2050.455566 3877.230225,2044.358643 
	C3834.515869,2033.855469 3803.292480,2009.078369 3783.641357,1969.680542 
	C3773.114014,1948.573853 3765.974121,1926.111694 3763.967285,1906.121094 
	C3777.364014,1896.911133 3793.671631,1893.128174 3810.266113,1886.063110 
z"/>
<path fill="#EFEFF1" opacity="1.000000" stroke="none" 
	d="
M2904.230469,1739.272705 
	C2907.968262,1711.104614 2911.512451,1684.720215 2915.187012,1658.354004 
	C2915.345459,1657.219116 2916.706543,1656.251831 2917.507812,1655.206909 
	C2936.105469,1652.396484 3013.532715,1652.718018 3028.684814,1655.669189 
	C3029.096436,1656.153198 3029.586182,1656.592285 3029.898193,1657.133911 
	C3030.226562,1657.703247 3030.650146,1658.402710 3030.579590,1658.991211 
	C3015.592773,1783.995117 3000.574219,1908.994995 2985.495117,2033.987793 
	C2985.110107,2037.179321 2984.046387,2040.288940 2983.046387,2044.502197 
	C2959.207520,2045.508545 2935.959961,2046.453979 2912.875000,2043.957520 
	C2894.612061,2041.982788 2885.414062,2030.534668 2883.516357,2011.575317 
	C2882.807617,2004.496216 2884.695312,1997.006226 2880.396973,1988.739258 
	C2876.249512,1992.082642 2872.796875,1994.724976 2869.500488,1997.550049 
	C2858.892822,2006.640869 2848.972900,2016.684204 2837.641113,2024.749268 
	C2813.131104,2042.193726 2785.471924,2051.237061 2755.249512,2051.286377 
	C2712.547119,2051.355957 2679.537109,2028.505737 2664.305908,1988.784302 
	C2657.781738,1971.770020 2654.205811,1954.041382 2655.185791,1935.934570 
	C2656.588623,1910.017700 2658.752197,1884.109253 2661.618408,1858.311401 
	C2667.504395,1805.335693 2674.034912,1752.431152 2680.384033,1699.507446 
	C2682.116699,1685.065674 2684.148926,1670.659790 2686.066162,1656.067871 
	C2699.458984,1651.460815 2712.158936,1653.819702 2724.599365,1653.454834 
	C2737.252930,1653.083618 2749.927979,1653.237671 2762.590088,1653.411011 
	C2775.071777,1653.581787 2787.659912,1652.463257 2801.204590,1654.670166 
	C2801.204590,1659.758789 2801.579102,1663.605347 2801.147217,1667.359253 
	C2796.123047,1711.047119 2791.012695,1754.725342 2785.852295,1798.397461 
	C2781.552246,1834.790771 2776.927246,1871.147827 2772.959717,1907.576904 
	C2771.958252,1916.772095 2771.862793,1926.337646 2773.211670,1935.458008 
	C2775.733887,1952.514160 2787.712646,1961.139160 2804.716309,1958.002808 
	C2813.033203,1956.468628 2821.267334,1952.966431 2828.778809,1948.938232 
	C2840.660645,1942.566284 2850.121094,1932.979004 2858.176514,1922.233032 
	C2876.885742,1897.275269 2889.574707,1870.076904 2892.392578,1838.301514 
	C2895.275146,1805.798340 2900.091064,1773.466553 2904.230469,1739.272705 
z"/>
<path fill="#EDEDF1" opacity="1.000000" stroke="none" 
	d="
M1576.600586,1615.047363 
	C1596.460815,1630.644287 1603.663574,1649.751831 1603.314087,1673.598755 
	C1602.435547,1733.544678 1603.041138,1793.511841 1602.910156,1853.470093 
	C1602.892700,1861.434204 1602.787842,1869.521118 1601.463501,1877.337646 
	C1596.392456,1907.270508 1573.065918,1928.586426 1542.940063,1931.351807 
	C1538.970581,1931.716064 1534.952148,1931.611694 1530.956299,1931.612305 
	C1432.357666,1931.625977 1333.758667,1931.716064 1235.160645,1931.474976 
	C1225.958862,1931.452515 1216.404541,1930.528076 1207.631348,1927.934082 
	C1182.440918,1920.486572 1165.353638,1898.132690 1163.576172,1871.893555 
	C1163.216431,1866.583862 1163.302490,1861.239136 1163.300903,1855.910645 
	C1163.283691,1796.618164 1163.286499,1737.325806 1163.295898,1678.033325 
	C1163.296631,1673.370361 1163.194214,1668.695923 1163.467041,1664.046143 
	C1164.972778,1638.393555 1177.911255,1620.318726 1200.648071,1609.107788 
	C1206.509399,1606.217773 1212.889038,1604.379028 1219.790527,1601.770142 
	C1220.124634,1595.692627 1220.687134,1589.791870 1220.728638,1583.887451 
	C1220.855225,1565.900757 1220.660400,1547.911621 1220.805908,1529.925049 
	C1221.435547,1452.068115 1273.614258,1386.490479 1349.776245,1370.724976 
	C1454.971558,1348.949463 1538.150391,1427.604492 1544.483398,1514.371826 
	C1545.983887,1534.930664 1545.372681,1555.643677 1545.732910,1576.285767 
	C1545.871460,1584.224121 1546.010010,1592.162354 1546.151855,1600.293579 
	C1556.455444,1605.188721 1565.933350,1609.691650 1576.600586,1615.047363 
M1211.939575,1758.000000 
	C1211.939331,1789.981567 1211.881714,1821.963135 1211.957031,1853.944580 
	C1212.017578,1879.701782 1214.985107,1882.836060 1240.529907,1882.860840 
	C1335.141846,1882.952515 1429.753906,1882.947998 1524.365845,1882.869507 
	C1550.424805,1882.847900 1553.584961,1879.793701 1553.635376,1854.549316 
	C1553.751221,1796.583008 1553.748535,1738.616333 1553.631592,1680.650024 
	C1553.579224,1654.716064 1550.797852,1651.994629 1524.955566,1651.980469 
	C1430.343628,1651.928467 1335.731567,1651.961426 1241.119629,1651.970825 
	C1237.122437,1651.971191 1233.106323,1651.823486 1229.131714,1652.146973 
	C1217.759521,1653.072144 1212.896484,1658.194336 1212.083252,1670.052246 
	C1211.810303,1674.033203 1211.947754,1678.044434 1211.946045,1682.041748 
	C1211.936035,1706.027832 1211.940186,1730.014038 1211.939575,1758.000000 
M1326.041016,1603.570312 
	C1375.268555,1603.569824 1424.496582,1603.657715 1473.723389,1603.470215 
	C1480.807983,1603.443115 1488.373779,1605.376465 1495.292969,1600.396729 
	C1495.731445,1597.950928 1496.585815,1595.380493 1496.591675,1592.808228 
	C1496.642822,1570.192261 1496.725586,1547.573120 1496.374268,1524.961426 
	C1496.271729,1518.365845 1495.366577,1511.661011 1493.873535,1505.227905 
	C1479.926392,1445.128540 1424.972778,1411.702271 1372.770752,1417.087280 
	C1312.129028,1423.343262 1270.421631,1471.698242 1269.818848,1527.733154 
	C1269.604248,1547.687744 1269.695679,1567.648193 1269.924316,1587.602783 
	C1269.975586,1592.081177 1271.186523,1596.546143 1271.931396,1601.464355 
	C1289.012085,1605.507202 1305.635986,1602.697266 1326.041016,1603.570312 
z"/>
<path fill="#EFEFF1" opacity="1.000000" stroke="none" 
	d="
M3320.070801,1733.095825 
	C3299.227783,1734.106934 3279.922852,1734.329834 3260.618896,1734.630737 
	C3253.374512,1734.743530 3246.133057,1735.037964 3239.765869,1735.223999 
	C3233.698730,1741.546021 3234.039062,1748.561157 3233.244873,1754.947510 
	C3226.258545,1811.121582 3219.495117,1867.323364 3212.788818,1923.531738 
	C3212.160645,1928.795044 3211.772461,1934.221191 3212.312500,1939.464600 
	C3213.918945,1955.058105 3225.235107,1962.894775 3240.558594,1959.116211 
	C3245.035400,1958.012207 3249.176758,1955.609009 3253.554688,1954.030518 
	C3263.801025,1950.336304 3268.871582,1951.603882 3273.455566,1960.838135 
	C3282.308350,1978.672241 3290.419922,1996.874268 3298.737549,2014.706787 
	C3297.064941,2017.223267 3296.363770,2019.344360 3294.898926,2020.326050 
	C3256.176758,2046.282471 3213.937012,2057.256836 3167.706787,2048.269043 
	C3125.169922,2039.999146 3097.825195,2007.439209 3095.706299,1964.219482 
	C3094.489990,1939.416626 3098.930176,1915.072876 3101.840576,1890.635742 
	C3107.353271,1844.348877 3113.496582,1798.137329 3119.227051,1751.875732 
	C3119.789062,1747.338135 3119.302246,1742.670654 3119.302246,1736.918335 
	C3114.869873,1736.160522 3110.479492,1734.906006 3106.046631,1734.732422 
	C3073.922119,1733.474731 3071.442871,1730.725220 3075.009766,1699.677002 
	C3075.921875,1691.736694 3076.422852,1683.745605 3077.489746,1675.828613 
	C3077.920166,1672.633545 3079.361328,1669.574707 3080.650635,1665.474121 
	C3095.565186,1662.348267 3110.413818,1658.805542 3125.430664,1656.251221 
	C3134.384033,1654.728271 3139.405273,1650.661499 3142.202881,1641.789795 
	C3148.808594,1620.840454 3156.364014,1600.190796 3163.525635,1579.416626 
	C3165.044922,1575.010132 3166.473877,1570.572021 3168.027832,1566.177979 
	C3176.035889,1543.531982 3180.600342,1540.164185 3204.169678,1539.955933 
	C3218.158691,1539.832275 3232.151367,1539.840942 3246.139160,1540.026855 
	C3249.965576,1540.077637 3253.781006,1540.983521 3258.664795,1541.640015 
	C3257.224609,1578.919922 3248.252930,1614.562988 3247.402832,1651.892212 
	C3253.038330,1652.870972 3257.440430,1654.220093 3261.865723,1654.299316 
	C3277.849609,1654.585449 3293.841797,1654.373291 3309.829834,1654.498779 
	C3316.423340,1654.550537 3323.013428,1654.980591 3330.679199,1655.280518 
	C3333.833252,1669.471436 3329.359131,1682.356934 3327.996338,1695.244141 
	C3326.679443,1707.694824 3323.801270,1719.980591 3320.070801,1733.095825 
z"/>
<path fill="#EDEDF1" opacity="1.000000" stroke="none" 
	d="
M1890.735718,2151.128662 
	C1876.167847,2160.233643 1861.838501,2164.444092 1845.944946,2164.162598 
	C1812.574707,2163.570557 1783.708252,2142.826416 1773.405151,2111.346436 
	C1762.899414,2079.247803 1774.292725,2044.017212 1801.755859,2024.395630 
	C1807.150024,2020.541870 1813.072876,2017.427979 1819.637085,2013.434326 
	C1820.142944,2009.531250 1821.180542,2004.997681 1821.237549,2000.451904 
	C1821.429810,1985.132446 1821.073608,1969.805664 1821.300049,1954.487183 
	C1821.590942,1934.810791 1809.604126,1918.627075 1785.204590,1917.704346 
	C1779.881470,1917.503052 1774.547729,1917.541138 1769.218872,1917.538452 
	C1739.240112,1917.522949 1709.261108,1917.582642 1679.282593,1917.481323 
	C1673.307007,1917.461060 1667.221802,1917.458740 1661.383057,1916.383911 
	C1650.614990,1914.401855 1643.749390,1906.465698 1642.561768,1895.868774 
	C1641.307617,1884.678589 1647.258911,1874.605103 1658.116577,1870.813477 
	C1662.412109,1869.313599 1667.212280,1868.669678 1671.786865,1868.650635 
	C1710.425537,1868.488770 1749.079346,1867.899170 1787.700684,1868.732422 
	C1835.833618,1869.770630 1869.849243,1904.294800 1871.593994,1952.733643 
	C1872.097168,1966.706787 1871.665894,1980.711548 1871.812866,1994.700317 
	C1871.875122,2000.624023 1872.323730,2006.543701 1872.620605,2012.984375 
	C1877.577759,2015.745239 1882.250854,2018.145142 1886.725220,2020.870972 
	C1930.960083,2047.820557 1937.845215,2106.081787 1901.090698,2142.548584 
	C1898.265015,2145.352295 1895.015015,2147.728516 1890.735718,2151.128662 
M1860.573364,2110.871094 
	C1864.210938,2107.140625 1868.726685,2103.932373 1871.316772,2099.578613 
	C1878.315430,2087.814209 1874.530029,2072.987793 1863.168579,2064.507080 
	C1852.367676,2056.444824 1836.622314,2057.953369 1827.172485,2067.955811 
	C1817.697632,2077.984619 1816.929077,2093.686768 1825.852661,2104.052490 
	C1834.511353,2114.110840 1845.255371,2117.158691 1860.573364,2110.871094 
z"/>
<path fill="#EDEDF1" opacity="1.000000" stroke="none" 
	d="
M1712.092529,1634.782227 
	C1734.714966,1634.777710 1755.355347,1634.818359 1775.994995,1634.735474 
	C1781.311401,1634.714111 1786.697388,1634.776489 1791.928711,1633.986694 
	C1809.780640,1631.291504 1821.118164,1620.330444 1822.409302,1602.268555 
	C1823.875732,1581.757324 1823.308960,1561.129761 1822.542603,1540.420166 
	C1815.538208,1536.146118 1809.068848,1532.759277 1803.210571,1528.526733 
	C1777.802002,1510.169312 1765.910522,1485.146118 1770.522339,1454.111572 
	C1775.380493,1421.420288 1794.821777,1399.634521 1826.639038,1390.750610 
	C1856.830200,1382.320557 1883.507446,1390.283081 1904.580566,1413.622437 
	C1935.182251,1447.515015 1928.452271,1500.651978 1890.574585,1527.704590 
	C1885.175781,1531.560547 1879.268555,1534.704712 1872.292969,1538.976685 
	C1871.863037,1543.158081 1870.951050,1548.337158 1870.869019,1553.529419 
	C1870.637573,1568.173950 1870.930908,1582.826904 1870.673218,1597.470581 
	C1870.387817,1613.693970 1867.067749,1629.241699 1858.330566,1643.175293 
	C1842.243652,1668.829956 1818.610718,1682.533203 1788.687012,1683.272339 
	C1749.428101,1684.241821 1710.128174,1683.582520 1670.845947,1683.533325 
	C1667.550293,1683.529297 1664.147949,1683.243774 1660.979004,1682.399170 
	C1648.886597,1679.177246 1641.672119,1669.246338 1642.434570,1657.338623 
	C1643.198364,1645.408569 1651.560303,1636.786499 1664.189087,1635.241089 
	C1668.136475,1634.758057 1672.162964,1634.831299 1676.154053,1634.811890 
	C1687.472534,1634.756958 1698.791382,1634.785767 1712.092529,1634.782227 
M1831.188721,1487.693970 
	C1836.243286,1491.352295 1841.908813,1492.845825 1848.113892,1492.637329 
	C1862.551636,1492.152344 1874.856445,1479.816895 1874.979248,1465.633057 
	C1875.107910,1450.769531 1861.576050,1437.224854 1846.870239,1437.497681 
	C1831.667969,1437.779907 1819.283569,1450.988037 1819.736328,1466.270386 
	C1819.967163,1474.062622 1823.148071,1480.382202 1831.188721,1487.693970 
z"/>
<path fill="#EEEDF1" opacity="1.000000" stroke="none" 
	d="
M1012.054199,1683.630615 
	C1000.076599,1683.611450 990.085266,1683.696411 980.097107,1683.555786 
	C923.201904,1682.754517 893.800537,1636.786377 895.389587,1598.625732 
	C896.189941,1579.404297 895.529236,1560.122192 895.529236,1540.594727 
	C889.580017,1537.074707 884.428223,1534.200195 879.449158,1531.052368 
	C848.515625,1511.496582 836.479492,1480.461182 844.807251,1444.661133 
	C852.439514,1411.850464 884.103027,1388.226929 918.425720,1387.818481 
	C953.293762,1387.403564 983.142883,1409.130249 993.612976,1442.545898 
	C1003.703125,1474.748901 991.589111,1508.991943 963.021729,1528.521851 
	C957.561523,1532.254639 951.713623,1535.420288 944.751221,1539.629395 
	C944.543030,1546.311157 944.177246,1553.515137 944.125305,1560.721313 
	C944.033997,1573.374268 943.773438,1586.041870 944.236328,1598.679565 
	C945.012085,1619.859009 956.266418,1631.901855 977.169739,1634.305542 
	C982.439087,1634.911377 987.808289,1634.758057 993.131836,1634.764771 
	C1024.433594,1634.804321 1055.735474,1634.768921 1087.037231,1634.808472 
	C1092.360352,1634.815308 1097.731689,1634.655396 1102.996094,1635.282959 
	C1113.896484,1636.582397 1121.679321,1644.068604 1123.341797,1654.188354 
	C1124.993408,1664.241455 1120.440063,1675.154541 1111.146118,1679.384399 
	C1105.317993,1682.036743 1098.412720,1683.318237 1091.960205,1683.428711 
	C1065.993896,1683.874023 1040.015747,1683.623779 1012.054199,1683.630615 
M894.255127,1453.486328 
	C893.526672,1457.374023 892.024658,1461.299194 892.210022,1465.142822 
	C892.853577,1478.488770 902.669006,1489.332642 915.366760,1491.510986 
	C927.004089,1493.507446 939.370117,1486.680786 944.721130,1475.306152 
	C949.959167,1464.171753 946.804321,1451.090454 936.914368,1442.936523 
	C926.950012,1434.721069 914.716187,1434.156738 903.750000,1441.971436 
	C900.595398,1444.219604 898.376160,1447.780029 894.255127,1453.486328 
z"/>
<path fill="#EDEEF1" opacity="1.000000" stroke="none" 
	d="
M951.186279,1931.821777 
	C948.216492,1938.715942 944.759216,1944.256958 944.571960,1949.906128 
	C943.890564,1970.464233 944.302917,1991.058594 944.302917,2012.208984 
	C950.487610,2015.846313 956.328369,2018.867065 961.733459,2022.530762 
	C987.032898,2039.679810 999.231812,2063.630127 996.596069,2094.118896 
	C994.027832,2123.828125 978.228271,2145.004150 951.341248,2157.498047 
	C919.074280,2172.491455 874.547546,2163.745850 852.460754,2125.899658 
	C835.924866,2097.564941 836.719482,2052.091553 874.867859,2024.627930 
	C880.766113,2020.381592 887.296204,2017.012939 894.718506,2012.521729 
	C894.957092,2006.475098 895.380676,1999.931396 895.439087,1993.384399 
	C895.557861,1980.068481 895.341003,1966.749146 895.506897,1953.434204 
	C896.105164,1905.414429 930.046204,1870.504028 978.183716,1868.673584 
	C992.146973,1868.142700 1006.146240,1868.548096 1020.128967,1868.543213 
	C1042.767822,1868.535278 1065.406982,1868.488892 1088.045532,1868.583862 
	C1093.349976,1868.606079 1098.798218,1868.451538 1103.926147,1869.557373 
	C1115.699951,1872.096680 1123.927368,1882.816895 1123.523926,1894.026978 
	C1123.110718,1905.509033 1114.484985,1915.038086 1102.202881,1916.764038 
	C1096.305664,1917.592773 1090.250977,1917.468384 1084.266846,1917.482178 
	C1051.640503,1917.557373 1019.013733,1917.546875 986.387146,1917.553345 
	C973.347412,1917.555908 961.111389,1919.646362 951.186279,1931.821777 
M924.672119,2059.750488 
	C920.104126,2060.046875 915.282104,2059.506104 911.016846,2060.800293 
	C899.209717,2064.383057 891.581726,2075.843018 892.096802,2087.915039 
	C892.616516,2100.097656 900.964050,2110.275635 913.122986,2113.552246 
	C923.888611,2116.453369 935.800354,2111.828125 942.478821,2102.153076 
	C949.612183,2091.819092 949.211548,2078.986816 940.503906,2069.327148 
	C937.119507,2065.572754 932.065063,2063.323730 924.672119,2059.750488 
z"/>
<path fill="#EEEEF1" opacity="1.000000" stroke="none" 
	d="
M845.880615,1796.476807 
	C842.793701,1782.336304 841.869202,1769.588013 845.380432,1757.270630 
	C854.155579,1726.487793 874.116821,1706.322876 905.752075,1700.184937 
	C937.452576,1694.034302 963.361084,1705.261719 982.746033,1730.993530 
	C987.121399,1736.801758 990.445068,1743.402222 994.829163,1750.581665 
	C999.511658,1750.941406 1004.724854,1751.663574 1009.941284,1751.688232 
	C1035.895630,1751.810547 1061.850830,1751.728149 1087.805664,1751.770386 
	C1093.125366,1751.779053 1098.511353,1751.525635 1103.750977,1752.241455 
	C1115.693359,1753.873169 1124.061890,1763.613403 1124.352539,1775.498535 
	C1124.642944,1787.379028 1116.643677,1797.534546 1104.804077,1799.613892 
	C1100.262573,1800.411499 1095.525269,1800.245728 1090.876587,1800.256104 
	C1065.587280,1800.312500 1040.297729,1800.241089 1015.008545,1800.320312 
	C1008.426453,1800.340942 1001.845520,1800.742676 995.066772,1800.976318 
	C992.453796,1805.627686 990.274048,1809.671875 987.944946,1813.627930 
	C971.554810,1841.467041 947.129639,1855.115967 914.937927,1853.080078 
	C883.397461,1851.085327 861.856567,1834.089600 848.987122,1805.627808 
	C847.896179,1803.215210 847.258606,1800.597778 845.880615,1796.476807 
M927.510254,1749.378418 
	C923.586121,1749.094238 919.537659,1748.047607 915.760254,1748.663574 
	C902.580200,1750.812500 892.826416,1761.651733 892.062622,1774.211792 
	C891.324341,1786.350708 898.675964,1797.533936 910.349121,1802.029541 
	C921.523804,1806.332886 934.577271,1802.246338 941.996033,1792.122070 
	C949.875427,1781.369507 949.249084,1768.344604 939.815979,1757.621826 
	C937.282471,1754.742065 933.537048,1752.928589 927.510254,1749.378418 
z"/>
<path fill="#EEEEF1" opacity="1.000000" stroke="none" 
	d="
M1708.061035,1800.288208 
	C1692.753052,1800.211548 1679.385498,1800.732178 1666.104004,1799.892212 
	C1652.503662,1799.031982 1643.819580,1789.287598 1643.619385,1776.449463 
	C1643.432739,1764.478027 1651.455933,1754.361206 1663.321167,1752.441040 
	C1668.538818,1751.596558 1673.949585,1751.794800 1679.273315,1751.781128 
	C1703.269897,1751.719727 1727.266724,1751.751831 1751.263550,1751.750488 
	C1757.894165,1751.750122 1764.524780,1751.750366 1771.910156,1751.750366 
	C1775.156250,1746.330200 1778.016724,1741.212891 1781.195801,1736.301880 
	C1799.663208,1707.772827 1825.817749,1694.556274 1859.528442,1699.816895 
	C1891.504272,1704.806763 1912.217773,1724.233032 1921.538208,1755.029663 
	C1932.209839,1790.291870 1915.758423,1827.856934 1883.026611,1844.841675 
	C1850.271362,1861.838623 1810.456177,1853.420532 1787.613037,1824.264771 
	C1782.304810,1817.489624 1778.201050,1809.770752 1773.153931,1801.877563 
	C1763.293457,1798.861450 1752.584106,1800.622803 1742.033325,1800.349243 
	C1731.375366,1800.072876 1720.704468,1800.288208 1708.061035,1800.288208 
M1873.773438,1783.481934 
	C1876.354492,1776.041504 1874.673706,1769.059326 1871.037476,1762.523926 
	C1863.377686,1748.756958 1846.702637,1744.275635 1833.469482,1752.208130 
	C1820.000488,1760.281982 1815.589478,1777.018066 1823.500854,1790.031250 
	C1832.156494,1804.268188 1849.685791,1808.283325 1862.890625,1798.400146 
	C1866.926270,1795.379639 1869.498413,1790.403442 1873.773438,1783.481934 
z"/>
<path fill="#6959DF" opacity="1.000000" stroke="none" 
	d="
M2394.503418,1642.341797 
	C2399.546143,1630.639893 2403.963135,1620.308228 2409.789795,1606.678589 
	C2412.174072,1614.477051 2414.085449,1619.002197 2414.918701,1623.717773 
	C2424.765869,1679.448853 2434.473877,1735.204712 2444.164551,1790.963379 
	C2446.544434,1804.654907 2448.728027,1818.380493 2451.118896,1832.796509 
	C2447.729980,1833.994873 2445.391357,1835.536377 2443.047607,1835.544067 
	C2403.082031,1835.674194 2363.115967,1835.633911 2323.150146,1835.534180 
	C2321.292480,1835.529541 2319.437012,1834.618530 2316.614014,1833.875000 
	C2319.108154,1816.335327 2328.322021,1801.466431 2334.363525,1785.538696 
	C2340.501221,1769.358276 2347.488525,1753.500244 2354.088867,1737.495117 
	C2360.435791,1722.104736 2366.632812,1706.651001 2373.136230,1691.327393 
	C2379.899658,1675.391724 2386.951660,1659.578613 2394.503418,1642.341797 
z"/>
<path fill="#6857DF" opacity="1.000000" stroke="none" 
	d="
M1211.939575,1756.000000 
	C1211.940186,1730.014038 1211.936035,1706.027832 1211.946045,1682.041748 
	C1211.947754,1678.044434 1211.810303,1674.033203 1212.083252,1670.052246 
	C1212.896484,1658.194336 1217.759521,1653.072144 1229.131714,1652.146973 
	C1233.106323,1651.823486 1237.122437,1651.971191 1241.119629,1651.970825 
	C1335.731567,1651.961426 1430.343628,1651.928467 1524.955566,1651.980469 
	C1550.797852,1651.994629 1553.579224,1654.716064 1553.631592,1680.650024 
	C1553.748535,1738.616333 1553.751221,1796.583008 1553.635376,1854.549316 
	C1553.584961,1879.793701 1550.424805,1882.847900 1524.365845,1882.869507 
	C1429.753906,1882.947998 1335.141846,1882.952515 1240.529907,1882.860840 
	C1214.985107,1882.836060 1212.017578,1879.701782 1211.957031,1853.944580 
	C1211.881714,1821.963135 1211.939331,1789.981567 1211.939575,1756.000000 
M1363.385376,1823.513306 
	C1364.587769,1826.567261 1365.195435,1830.071045 1367.102051,1832.592285 
	C1373.244263,1840.713867 1382.845337,1843.721313 1391.785645,1840.637329 
	C1400.360962,1837.679321 1404.151489,1831.006714 1404.781128,1822.377197 
	C1405.167480,1817.082886 1405.251221,1811.751465 1405.176025,1806.441040 
	C1404.951172,1790.536987 1405.059326,1775.609009 1416.298828,1761.604004 
	C1425.857056,1749.693970 1422.158325,1730.288818 1412.327637,1719.016479 
	C1401.640503,1706.762085 1383.449219,1702.434937 1368.769775,1708.655762 
	C1347.540039,1717.652588 1339.020020,1744.285889 1351.341064,1763.965942 
	C1354.481323,1768.982056 1358.639893,1773.360596 1363.031128,1778.918945 
	C1363.031128,1792.176758 1363.031128,1806.119751 1363.385376,1823.513306 
z"/>
<path fill="#6857DF" opacity="1.000000" stroke="none" 
	d="
M1324.049805,1603.570312 
	C1305.635986,1602.697266 1289.012085,1605.507202 1271.931396,1601.464355 
	C1271.186523,1596.546143 1269.975586,1592.081177 1269.924316,1587.602783 
	C1269.695679,1567.648193 1269.604248,1547.687744 1269.818848,1527.733154 
	C1270.421631,1471.698242 1312.129028,1423.343262 1372.770752,1417.087280 
	C1424.972778,1411.702271 1479.926392,1445.128540 1493.873535,1505.227905 
	C1495.366577,1511.661011 1496.271729,1518.365845 1496.374268,1524.961426 
	C1496.725586,1547.573120 1496.642822,1570.192261 1496.591675,1592.808228 
	C1496.585815,1595.380493 1495.731445,1597.950928 1495.292969,1600.396729 
	C1488.373779,1605.376465 1480.807983,1603.443115 1473.723389,1603.470215 
	C1424.496582,1603.657715 1375.268555,1603.569824 1324.049805,1603.570312 
z"/>
<path fill="#6D5CDE" opacity="1.000000" stroke="none" 
	d="
M1859.225342,2111.500977 
	C1845.255371,2117.158691 1834.511353,2114.110840 1825.852661,2104.052490 
	C1816.929077,2093.686768 1817.697632,2077.984619 1827.172485,2067.955811 
	C1836.622314,2057.953369 1852.367676,2056.444824 1863.168579,2064.507080 
	C1874.530029,2072.987793 1878.315430,2087.814209 1871.316772,2099.578613 
	C1868.726685,2103.932373 1864.210938,2107.140625 1859.225342,2111.500977 
z"/>
<path fill="#6D5CDE" opacity="1.000000" stroke="none" 
	d="
M1829.937988,1486.681519 
	C1823.148071,1480.382202 1819.967163,1474.062622 1819.736328,1466.270386 
	C1819.283569,1450.988037 1831.667969,1437.779907 1846.870239,1437.497681 
	C1861.576050,1437.224854 1875.107910,1450.769531 1874.979248,1465.633057 
	C1874.856445,1479.816895 1862.551636,1492.152344 1848.113892,1492.637329 
	C1841.908813,1492.845825 1836.243286,1491.352295 1829.937988,1486.681519 
z"/>
<path fill="#6D5CDE" opacity="1.000000" stroke="none" 
	d="
M894.991577,1452.112549 
	C898.376160,1447.780029 900.595398,1444.219604 903.750000,1441.971436 
	C914.716187,1434.156738 926.950012,1434.721069 936.914368,1442.936523 
	C946.804321,1451.090454 949.959167,1464.171753 944.721130,1475.306152 
	C939.370117,1486.680786 927.004089,1493.507446 915.366760,1491.510986 
	C902.669006,1489.332642 892.853577,1478.488770 892.210022,1465.142822 
	C892.024658,1461.299194 893.526672,1457.374023 894.991577,1452.112549 
z"/>
<path fill="#6D5CDE" opacity="1.000000" stroke="none" 
	d="
M926.221680,2060.069824 
	C932.065063,2063.323730 937.119507,2065.572754 940.503906,2069.327148 
	C949.211548,2078.986816 949.612183,2091.819092 942.478821,2102.153076 
	C935.800354,2111.828125 923.888611,2116.453369 913.122986,2113.552246 
	C900.964050,2110.275635 892.616516,2100.097656 892.096802,2087.915039 
	C891.581726,2075.843018 899.209717,2064.383057 911.016846,2060.800293 
	C915.282104,2059.506104 920.104126,2060.046875 926.221680,2060.069824 
z"/>
<path fill="#6D5CDE" opacity="1.000000" stroke="none" 
	d="
M928.929138,1750.001953 
	C933.537048,1752.928589 937.282471,1754.742065 939.815979,1757.621826 
	C949.249084,1768.344604 949.875427,1781.369507 941.996033,1792.122070 
	C934.577271,1802.246338 921.523804,1806.332886 910.349121,1802.029541 
	C898.675964,1797.533936 891.324341,1786.350708 892.062622,1774.211792 
	C892.826416,1761.651733 902.580200,1750.812500 915.760254,1748.663574 
	C919.537659,1748.047607 923.586121,1749.094238 928.929138,1750.001953 
z"/>
<path fill="#6D5CDE" opacity="1.000000" stroke="none" 
	d="
M1873.257080,1784.902344 
	C1869.498413,1790.403442 1866.926270,1795.379639 1862.890625,1798.400146 
	C1849.685791,1808.283325 1832.156494,1804.268188 1823.500854,1790.031250 
	C1815.589478,1777.018066 1820.000488,1760.281982 1833.469482,1752.208130 
	C1846.702637,1744.275635 1863.377686,1748.756958 1871.037476,1762.523926 
	C1874.673706,1769.059326 1876.354492,1776.041504 1873.257080,1784.902344 
z"/>
<path fill="#EEEDF1" opacity="1.000000" stroke="none" 
	d="
M1363.208252,1821.788086 
	C1363.031128,1806.119751 1363.031128,1792.176758 1363.031128,1778.918945 
	C1358.639893,1773.360596 1354.481323,1768.982056 1351.341064,1763.965942 
	C1339.020020,1744.285889 1347.540039,1717.652588 1368.769775,1708.655762 
	C1383.449219,1702.434937 1401.640503,1706.762085 1412.327637,1719.016479 
	C1422.158325,1730.288818 1425.857056,1749.693970 1416.298828,1761.604004 
	C1405.059326,1775.609009 1404.951172,1790.536987 1405.176025,1806.441040 
	C1405.251221,1811.751465 1405.167480,1817.082886 1404.781128,1822.377197 
	C1404.151489,1831.006714 1400.360962,1837.679321 1391.785645,1840.637329 
	C1382.845337,1843.721313 1373.244263,1840.713867 1367.102051,1832.592285 
	C1365.195435,1830.071045 1364.587769,1826.567261 1363.208252,1821.788086 
z"/>
</svg>